<?xml version="1.0" encoding="UTF-8"?>
<!-- Generator: visioncortex VTracer -->
<svg id="svg" version="1.1" xmlns="http://www.w3.org/2000/svg" style="display: block;" viewBox="0 0 1098 1074"><path d="M0 0 C16.17 0 32.34 0 49 0 C64.84 1.485 64.84 1.485 81 3 C95.85 5.475 95.85 5.475 111 8 C120.57 10.31 130.14 12.62 140 15 C147.59 17.31 155.18 19.62 163 22 C169.93 24.64 176.86 27.28 184 30 C192.91 33.96 201.82 37.92 211 42 C219.25 46.29 227.5 50.58 236 55 C241.94 58.63 247.88 62.26 254 66 C261.92 71.445 261.92 71.445 270 77 C273.96 79.97 277.92 82.94 282 86 C286.29 89.3 290.58 92.6 295 96 C298.63 99.3 302.26 102.6 306 106 C309.96 109.465 309.96 109.465 314 113 C314.99 113.66 315.98 114.32 317 115 C317 115.66 317 116.32 317 117 C318.32 117.66 319.64 118.32 321 119 C324.3 122.3 327.6 125.6 331 129 C333.31 131.64 335.62 134.28 338 137 C341.96 141.29 345.92 145.58 350 150 C352.64 153.3 355.28 156.6 358 160 C361.96 165.28 365.92 170.56 370 176 C376.93 186.395 376.93 186.395 384 197 C386.97 201.95 389.94 206.9 393 212 C396.96 219.26 400.92 226.52 405 234 C408.3 240.93 411.6 247.86 415 255 C418.3 263.58 421.6 272.16 425 281 C427.31 287.93 429.62 294.86 432 302 C434.31 310.91 436.62 319.82 439 329 C441.475 341.375 441.475 341.375 444 354 C445.32 364.56 446.64 375.12 448 386 C448.33 390.29 448.66 394.58 449 399 C449 415.17 449 431.34 449 448 C448.34 455.92 447.68 463.84 447 472 C445.68 481.24 444.36 490.48 443 500 C440.69 510.56 438.38 521.12 436 532 C431.545 546.85 431.545 546.85 427 562 C424.36 568.93 421.72 575.86 419 583 C415.37 591.25 411.74 599.5 408 608 C403.71 616.25 399.42 624.5 395 633 C391.04 639.6 387.08 646.2 383 653 C377.555 660.92 377.555 660.92 372 669 C368.04 674.28 364.08 679.56 360 685 C355.545 690.445 355.545 690.445 351 696 C347.04 700.62 343.08 705.24 339 710 C336.69 712.31 334.38 714.62 332 717 C331.34 717.99 330.68 718.98 330 720 C329.34 720 328.68 720 328 720 C327.34 721.32 326.68 722.64 326 724 C323.69 726.31 321.38 728.62 319 731 C316.36 733.31 313.72 735.62 311 738 C307.37 741.3 303.74 744.6 300 748 C296.7 750.64 293.4 753.28 290 756 C284.39 760.29 278.78 764.58 273 769 C265.08 774.28 257.16 779.56 249 785 C243.39 788.3 237.78 791.6 232 795 C224.41 798.96 216.82 802.92 209 807 C196.625 812.445 196.625 812.445 184 818 C175.09 821.3 166.18 824.6 157 828 C143.14 831.96 143.14 831.96 129 836 C118.11 838.31 107.22 840.62 96 843 C85.11 844.32 74.22 845.64 63 847 C57.72 847.33 52.44 847.66 47 848 C31.49 848 15.98 848 0 848 C-12.54 846.68 -25.08 845.36 -38 844 C-45.59 842.68 -53.18 841.36 -61 840 C-73.375 837.03 -73.375 837.03 -86 834 C-95.9 831.03 -105.8 828.06 -116 825 C-125.24 821.37 -134.48 817.74 -144 814 C-160.335 806.08 -160.335 806.08 -177 798 C-183.27 794.37 -189.54 790.74 -196 787 C-207.88 779.08 -207.88 779.08 -220 771 C-225.28 767.04 -230.56 763.08 -236 759 C-241.61 754.38 -247.22 749.76 -253 745 C-256.96 741.37 -260.92 737.74 -265 734 C-269.95 729.545 -269.95 729.545 -275 725 C-275.99 724.01 -276.98 723.02 -278 722 C-278 721.34 -278 720.68 -278 720 C-278.99 719.67 -279.98 719.34 -281 719 C-283.31 716.36 -285.62 713.72 -288 711 C-291.63 707.04 -295.26 703.08 -299 699 C-302.63 694.38 -306.26 689.76 -310 685 C-313.3 680.71 -316.6 676.42 -320 672 C-325.28 664.08 -330.56 656.16 -336 648 C-340.95 639.42 -345.9 630.84 -351 622 C-355.29 613.09 -359.58 604.18 -364 595 C-367.3 586.75 -370.6 578.5 -374 570 C-376.97 561.09 -379.94 552.18 -383 543 C-385.31 533.76 -387.62 524.52 -390 515 C-391.65 506.09 -393.3 497.18 -395 488 C-395.99 479.75 -396.98 471.5 -398 463 C-398.33 458.38 -398.66 453.76 -399 449 C-399 432.5 -399 416 -399 399 C-398.01 388.44 -397.02 377.88 -396 367 C-394.35 357.43 -392.7 347.86 -391 338 C-389.02 329.75 -387.04 321.5 -385 313 C-382.03 303.1 -379.06 293.2 -376 283 C-372.37 273.76 -368.74 264.52 -365 255 C-360.05 244.77 -355.1 234.54 -350 224 C-346.04 217.07 -342.08 210.14 -338 203 C-331.07 192.605 -331.07 192.605 -324 182 C-318.555 174.575 -318.555 174.575 -313 167 C-309.37 162.38 -305.74 157.76 -302 153 C-297.71 148.05 -293.42 143.1 -289 138 C-281.575 130.08 -281.575 130.08 -274 122 C-273.01 121.67 -272.02 121.34 -271 121 C-270.67 120.01 -270.34 119.02 -270 118 C-267.36 115.69 -264.72 113.38 -262 111 C-258.04 107.37 -254.08 103.74 -250 100 C-245.38 96.37 -240.76 92.74 -236 89 C-231.71 85.7 -227.42 82.4 -223 79 C-215.08 73.72 -207.16 68.44 -199 63 C-192.07 59.04 -185.14 55.08 -178 51 C-171.73 47.7 -165.46 44.4 -159 41 C-150.75 37.37 -142.5 33.74 -134 30 C-125.75 27.03 -117.5 24.06 -109 21 C-101.41 18.69 -93.82 16.38 -86 14 C-73.625 11.03 -73.625 11.03 -61 8 C-51.1 6.35 -41.2 4.7 -31 3 C-20.77 2.01 -10.54 1.02 0 0 Z " transform="translate(526,139)" style="fill: #D65706;"/><path d="M0 0 C14.85 0.495 14.85 0.495 30 1 C31.65 1.99 33.3 2.98 35 4 C35.99 4.99 36.98 5.98 38 7 C40.64 7.66 43.28 8.32 46 9 C46 9.66 46 10.32 46 11 C48.31 11.66 50.62 12.32 53 13 C53.33 14.65 53.66 16.3 54 18 C54 18.99 54 19.98 54 21 C53.34 21.33 52.68 21.66 52 22 C52.495 22.99 52.495 22.99 53 24 C53.99 24.33 54.98 24.66 56 25 C56.99 25.99 57.98 26.98 59 28 C59 27.34 59 26.68 59 26 C59.99 25.505 59.99 25.505 61 25 C63.97 25 66.94 25 70 25 C70 25.66 70 26.32 70 27 C71.98 27.66 73.96 28.32 76 29 C78.31 31.64 80.62 34.28 83 37 C83.99 38.98 84.98 40.96 86 43 C88.31 48.61 90.62 54.22 93 60 C93.99 63.3 94.98 66.6 96 70 C96.33 72.64 96.66 75.28 97 78 C97 85.59 97 93.18 97 101 C96.34 103.31 95.68 105.62 95 108 C94.01 111.3 93.02 114.6 92 118 C90.02 120.97 88.04 123.94 86 127 C85.01 128.98 84.02 130.96 83 133 C80.69 135.64 78.38 138.28 76 141 C73.36 143.31 70.72 145.62 68 148 C66.35 149.65 64.7 151.3 63 153 C60.36 153.33 57.72 153.66 55 154 C54.34 154.99 53.68 155.98 53 157 C50.36 157.33 47.72 157.66 45 158 C43.35 159.32 41.7 160.64 40 162 C36.535 162.99 36.535 162.99 33 164 C32.01 164.99 31.02 165.98 30 167 C26.7 167 23.4 167 20 167 C19.67 167.66 19.34 168.32 19 169 C11.08 169.33 3.16 169.66 -5 170 C-7.97 169.34 -10.94 168.68 -14 168 C-18.62 165.69 -23.24 163.38 -28 161 C-30.475 158.525 -30.475 158.525 -33 156 C-34.65 155.01 -36.3 154.02 -38 153 C-42.455 148.545 -42.455 148.545 -47 144 C-49.97 140.37 -52.94 136.74 -56 133 C-58.31 130.03 -60.62 127.06 -63 124 C-64.32 122.02 -65.64 120.04 -67 118 C-67.99 115.03 -68.98 112.06 -70 109 C-71.32 105.7 -72.64 102.4 -74 99 C-74.33 98.34 -74.66 97.68 -75 97 C-75 93.04 -75 89.08 -75 85 C-74.34 80.05 -73.68 75.1 -73 70 C-72.34 67.03 -71.68 64.06 -71 61 C-70.01 60.505 -70.01 60.505 -69 60 C-68.34 57.03 -67.68 54.06 -67 51 C-65.35 48.03 -63.7 45.06 -62 42 C-58.04 38.37 -54.08 34.74 -50 31 C-44.06 25.06 -38.12 19.12 -32 13 C-30.35 12.01 -28.7 11.02 -27 10 C-26.34 9.34 -25.68 8.68 -25 8 C-21.04 7.34 -17.08 6.68 -13 6 C-11.35 5.01 -9.7 4.02 -8 3 C-6.35 2.34 -4.7 1.68 -3 1 C-2.01 0.67 -1.02 0.34 0 0 Z " transform="translate(646,374)" style="fill: #F9F4F0;"/><path d="M0 0 C1.65 0.33 3.3 0.66 5 1 C5.33 0.67 5.66 0.34 6 0 C8.64 0 11.28 0 14 0 C14.99 0.495 14.99 0.495 16 1 C20.62 1 25.24 1 30 1 C30.495 2.485 30.495 2.485 31 4 C33.97 4.33 36.94 4.66 40 5 C43.63 6.98 47.26 8.96 51 11 C55.455 13.475 55.455 13.475 60 16 C64.29 20.29 68.58 24.58 73 29 C73.99 30.98 73.99 30.98 75 33 C75.66 35.31 76.32 37.62 77 40 C78.98 42.31 80.96 44.62 83 47 C83 48.98 83 50.96 83 53 C84.98 56.96 84.98 56.96 87 61 C87.33 63.64 87.66 66.28 88 69 C87.67 70.65 87.34 72.3 87 74 C87.66 74 88.32 74 89 74 C89 80.27 89 86.54 89 93 C88.01 94.32 87.02 95.64 86 97 C85.67 101.95 85.34 106.9 85 112 C81.535 116.95 81.535 116.95 78 122 C76.68 124.64 75.36 127.28 74 130 C71.69 132.31 69.38 134.62 67 137 C64.525 137.99 64.525 137.99 62 139 C61.01 140.65 60.02 142.3 59 144 C55.7 145.65 52.4 147.3 49 149 C48.34 149 47.68 149 47 149 C47 149.66 47 150.32 47 151 C45.35 151.33 43.7 151.66 42 152 C41.01 153.32 40.02 154.64 39 156 C36.36 156.33 33.72 156.66 31 157 C29.02 158.32 27.04 159.64 25 161 C23.02 161.33 21.04 161.66 19 162 C15.37 162 11.74 162 8 162 C2.06 161.67 -3.88 161.34 -10 161 C-10.99 160.67 -11.98 160.34 -13 160 C-13 159.34 -13 158.68 -13 158 C-17.29 157.01 -21.58 156.02 -26 155 C-28.31 154.01 -30.62 153.02 -33 152 C-34.32 150.68 -35.64 149.36 -37 148 C-38.65 147.01 -40.3 146.02 -42 145 C-43.98 143.68 -45.96 142.36 -48 141 C-49.485 140.01 -49.485 140.01 -51 139 C-51.99 136.525 -51.99 136.525 -53 134 C-53.99 132.35 -54.98 130.7 -56 129 C-56 127.35 -56 125.7 -56 124 C-55.01 125.32 -54.02 126.64 -53 128 C-51.68 128.33 -50.36 128.66 -49 129 C-50.485 124.545 -50.485 124.545 -52 120 C-52.66 118.68 -53.32 117.36 -54 116 C-53.67 113.69 -53.34 111.38 -53 109 C-54.98 106.03 -56.96 103.06 -59 100 C-60.32 99.67 -61.64 99.34 -63 99 C-62.67 102.3 -62.34 105.6 -62 109 C-61.67 109.33 -61.34 109.66 -61 110 C-61 111.65 -61 113.3 -61 115 C-60.34 115 -59.68 115 -59 115 C-59 115.66 -59 116.32 -59 117 C-60.32 116.67 -61.64 116.34 -63 116 C-63.99 114.02 -64.98 112.04 -66 110 C-66.66 107.69 -67.32 105.38 -68 103 C-68.66 93.76 -69.32 84.52 -70 75 C-70.99 74.67 -71.98 74.34 -73 74 C-73 68.39 -73 62.78 -73 57 C-70.03 51.72 -67.06 46.44 -64 41 C-62.35 37.7 -60.7 34.4 -59 31 C-56.03 28.36 -53.06 25.72 -50 23 C-48.68 22.01 -47.36 21.02 -46 20 C-45.01 18.35 -44.02 16.7 -43 15 C-40.03 12.36 -37.06 9.72 -34 7 C-30.535 6.505 -30.535 6.505 -27 6 C-25.68 5.34 -24.36 4.68 -23 4 C-23 4.66 -23 5.32 -23 6 C-21.02 5.34 -19.04 4.68 -17 4 C-16.01 4 -15.02 4 -14 4 C-10.7 3.01 -7.4 2.02 -4 1 C-2.68 0.67 -1.36 0.34 0 0 Z " transform="translate(446,430)" style="fill: #FAF5F1;"/><path d="M0 0 C14.85 0.495 14.85 0.495 30 1 C31.65 1.99 33.3 2.98 35 4 C35.99 4.99 36.98 5.98 38 7 C40.64 7.66 43.28 8.32 46 9 C46 9.66 46 10.32 46 11 C48.31 11.66 50.62 12.32 53 13 C53.495 15.475 53.495 15.475 54 18 C54 18.99 54 19.98 54 21 C53.34 21.33 52.68 21.66 52 22 C52.495 22.99 52.495 22.99 53 24 C54.485 24.495 54.485 24.495 56 25 C56.99 25.99 57.98 26.98 59 28 C59 27.34 59 26.68 59 26 C59.99 25.505 59.99 25.505 61 25 C63.97 25 66.94 25 70 25 C70 25.66 70 26.32 70 27 C71.98 27.66 73.96 28.32 76 29 C78.31 31.64 80.62 34.28 83 37 C83.99 38.98 84.98 40.96 86 43 C88.31 48.61 90.62 54.22 93 60 C93.99 63.3 94.98 66.6 96 70 C96.33 72.64 96.66 75.28 97 78 C97 85.59 97 93.18 97 101 C96.34 103.31 95.68 105.62 95 108 C94.01 111.3 93.02 114.6 92 118 C90.02 120.97 88.04 123.94 86 127 C85.01 128.98 84.02 130.96 83 133 C80.69 135.64 78.38 138.28 76 141 C75.67 139.68 75.34 138.36 75 137 C76.32 135.35 77.64 133.7 79 132 C79.99 129.36 80.98 126.72 82 124 C84.475 121.03 84.475 121.03 87 118 C87.99 114.7 88.98 111.4 90 108 C90.33 106.35 90.66 104.7 91 103 C91 99.7 91 96.4 91 93 C91.33 91.68 91.66 90.36 92 89 C91.67 87.02 91.34 85.04 91 83 C90.67 81.02 90.34 79.04 90 77 C89.34 76.67 88.68 76.34 88 76 C88 75.01 88 74.02 88 73 C85.03 73.495 85.03 73.495 82 74 C81.01 72.35 80.02 70.7 79 69 C79 67.02 79 65.04 79 63 C79.99 61.68 80.98 60.36 82 59 C82.99 58.67 83.98 58.34 85 58 C85 56.02 85 54.04 85 52 C83.02 47.545 83.02 47.545 81 43 C80.01 40.525 80.01 40.525 79 38 C78.01 37.01 77.02 36.02 76 35 C73.69 35 71.38 35 69 35 C68.01 34.67 67.02 34.34 66 34 C65.67 33.34 65.34 32.68 65 32 C62.03 32 59.06 32 56 32 C54.68 30.35 53.36 28.7 52 27 C50.02 26.34 48.04 25.68 46 25 C46.33 23.68 46.66 22.36 47 21 C45.68 20.67 44.36 20.34 43 20 C43 20.99 43 21.98 43 23 C42.01 23 41.02 23 40 23 C40 22.01 40 21.02 40 20 C38.515 19.505 38.515 19.505 37 19 C37.33 18.34 37.66 17.68 38 17 C38.66 17 39.32 17 40 17 C40 16.01 40 15.02 40 14 C37.36 13.67 34.72 13.34 32 13 C32 11.35 32 9.7 32 8 C31.34 8 30.68 8 30 8 C30 7.34 30 6.68 30 6 C24.06 6 18.12 6 12 6 C10.68 5.67 9.36 5.34 8 5 C3.71 5.66 -0.58 6.32 -5 7 C-6.32 7.99 -7.64 8.98 -9 10 C-11.31 10.33 -13.62 10.66 -16 11 C-18.31 11.66 -20.62 12.32 -23 13 C-24.98 13.99 -24.98 13.99 -27 15 C-29.64 17.31 -32.28 19.62 -35 22 C-43.58 30.58 -52.16 39.16 -61 48 C-62.485 50.475 -62.485 50.475 -64 53 C-64.33 54.32 -64.66 55.64 -65 57 C-65.99 57.99 -66.98 58.98 -68 60 C-67.67 57.03 -67.34 54.06 -67 51 C-65.35 48.03 -63.7 45.06 -62 42 C-58.04 38.37 -54.08 34.74 -50 31 C-44.06 25.06 -38.12 19.12 -32 13 C-30.35 12.01 -28.7 11.02 -27 10 C-26.34 9.34 -25.68 8.68 -25 8 C-21.04 7.34 -17.08 6.68 -13 6 C-11.35 5.01 -9.7 4.02 -8 3 C-6.35 2.34 -4.7 1.68 -3 1 C-2.01 0.67 -1.02 0.34 0 0 Z " transform="translate(646,374)" style="fill: #DBA782;"/><path d="M0 0 C2.31 0 4.62 0 7 0 C9.64 0.99 12.28 1.98 15 3 C17.475 5.475 17.475 5.475 20 8 C20.99 9.98 21.98 11.96 23 14 C23 17.63 23 21.26 23 25 C20.69 27.64 18.38 30.28 16 33 C14.02 34.32 12.04 35.64 10 37 C6.37 37 2.74 37 -1 37 C-2.98 36.01 -4.96 35.02 -7 34 C-8.65 32.68 -10.3 31.36 -12 30 C-12.99 27.69 -13.98 25.38 -15 23 C-15 20.03 -15 17.06 -15 14 C-14.67 11.69 -14.34 9.38 -14 7 C-12.68 5.68 -11.36 4.36 -10 3 C-8.68 2.34 -7.36 1.68 -6 1 C-4.02 0.67 -2.04 0.34 0 0 Z " transform="translate(681,416)" style="fill: #141210;"/><path d="M0 0 C3.63 0 7.26 0 11 0 C12.98 1.32 14.96 2.64 17 4 C18.98 5.98 20.96 7.96 23 10 C23.495 12.97 23.495 12.97 24 16 C24 18.64 24 21.28 24 24 C23.34 25.65 22.68 27.3 22 29 C20.02 30.65 18.04 32.3 16 34 C14.35 34.66 12.7 35.32 11 36 C7.04 36 3.08 36 -1 36 C-3.97 34.02 -6.94 32.04 -10 30 C-10.66 29.01 -11.32 28.02 -12 27 C-12 25.68 -12 24.36 -12 23 C-12.99 23 -13.98 23 -15 23 C-15 20.69 -15 18.38 -15 16 C-13.35 13.03 -11.7 10.06 -10 7 C-8.02 5.35 -6.04 3.7 -4 2 C-2.68 1.34 -1.36 0.68 0 0 Z " transform="translate(476,465)" style="fill: #191617;"/></svg>